<?xml version="1.0" encoding="UTF-8"?>
<!DOCTYPE svg PUBLIC "-//W3C//DTD SVG 1.1//EN" "http://www.w3.org/Graphics/SVG/1.1/DTD/svg11.dtd">
<svg xmlns="http://www.w3.org/2000/svg" version="1.1" width="512px" height="512px" style="shape-rendering:geometricPrecision; text-rendering:geometricPrecision; image-rendering:optimizeQuality; fill-rule:evenodd; clip-rule:evenodd" xmlns:xlink="http://www.w3.org/1999/xlink">
<g><path style="opacity:0.976" fill="#ff8c2e" d="M 42.5,387.5 C 42.5,388.167 42.8333,388.5 43.5,388.5C 107.389,450.067 183.389,473.567 271.5,459C 350.156,441.662 406.989,396.829 442,324.5C 480.378,228.141 467.378,139.474 403,58.5C 398.151,53.4251 393.318,48.4251 388.5,43.5C 388.5,42.8333 388.167,42.5 387.5,42.5C 391.13,38.369 394.963,34.369 399,30.5C 464.125,97.5504 489.792,177.55 476,270.5C 458.159,357.327 409.326,419.827 329.5,458C 249.182,490.464 170.515,486.797 93.5,447C 70.1629,434.154 49.1629,418.154 30.5,399C 34.369,394.963 38.369,391.13 42.5,387.5 Z"/></g>
<g><path style="opacity:1" fill="#fedaa9" d="M 388.5,43.5 C 393.318,48.4251 398.151,53.4251 403,58.5C 467.378,139.474 480.378,228.141 442,324.5C 406.989,396.829 350.156,441.662 271.5,459C 183.389,473.567 107.389,450.067 43.5,388.5C 158.167,273.167 273.167,158.167 388.5,43.5 Z"/></g>
<g><path style="opacity:1" fill="#ff8c2e" d="M 387.5,65.5 C 427.42,108.046 448.087,158.713 449.5,217.5C 378.499,217.667 307.499,217.5 236.5,217C 287.035,166.632 337.368,116.132 387.5,65.5 Z"/></g>
<g><path style="opacity:1" fill="#fed099" d="M 448.5,237.5 C 448.5,236.167 448.5,234.833 448.5,233.5C 377.665,233.167 306.998,233.501 236.5,234.5C 235.957,234.44 235.624,234.107 235.5,233.5C 306.83,232.5 378.164,232.167 449.5,232.5C 449.784,234.415 449.451,236.081 448.5,237.5 Z"/></g>
<g><path style="opacity:1" fill="#ff8c2e" d="M 236.5,234.5 C 306.998,233.501 377.665,233.167 448.5,233.5C 448.5,234.833 448.5,236.167 448.5,237.5C 444.346,293.362 422.679,341.029 383.5,380.5C 334.479,331.812 285.479,283.146 236.5,234.5 Z"/></g>
<g><path style="opacity:1" fill="#ff8c2e" d="M 207.5,245.5 C 208.499,312.998 208.833,380.665 208.5,448.5C 153.479,445.338 105.812,425.171 65.5,388C 113.035,340.632 160.368,293.132 207.5,245.5 Z"/></g>
<g><path style="opacity:1" fill="#ff8c2e" d="M 224.5,245.5 C 273.812,294.146 322.812,343.146 371.5,392.5C 329.542,428.943 280.542,447.943 224.5,449.5C 224.5,381.5 224.5,313.5 224.5,245.5 Z"/></g>
<g><path style="opacity:0.925" fill="#fec789" d="M 387.5,42.5 C 388.167,42.5 388.5,42.8333 388.5,43.5C 273.167,158.167 158.167,273.167 43.5,388.5C 42.8333,388.5 42.5,388.167 42.5,387.5C 157.167,272.167 272.167,157.167 387.5,42.5 Z"/></g>
</svg>
