<?xml version="1.0" encoding="UTF-8"?>
<!DOCTYPE svg PUBLIC "-//W3C//DTD SVG 1.1//EN" "http://www.w3.org/Graphics/SVG/1.1/DTD/svg11.dtd">
<svg xmlns="http://www.w3.org/2000/svg" version="1.1" width="512px" height="512px" style="shape-rendering:geometricPrecision; text-rendering:geometricPrecision; image-rendering:optimizeQuality; fill-rule:evenodd; clip-rule:evenodd" xmlns:xlink="http://www.w3.org/1999/xlink">
<g><path style="opacity:1" fill="#608a00" d="M 45.5,383.5 C 67.8545,404.673 92.8545,422.173 120.5,436C 193.122,467.733 264.789,465.733 335.5,430C 405.251,389.399 445.751,328.899 457,248.5C 462.756,196.948 452.756,148.615 427,103.5C 415.167,82.169 400.667,62.8357 383.5,45.5C 387.808,39.0216 393.141,33.855 399.5,30C 471.978,106.401 495.145,195.901 469,298.5C 445.131,374.038 396.964,427.871 324.5,460C 229.507,494.952 140.84,483.285 58.5,425C 48.702,416.871 39.202,408.371 30,399.5C 33.855,393.141 39.0216,387.808 45.5,383.5 Z"/></g>
<g><path style="opacity:1" fill="#ad904d" d="M 383.5,45.5 C 400.667,62.8357 415.167,82.169 427,103.5C 452.756,148.615 462.756,196.948 457,248.5C 445.751,328.899 405.251,389.399 335.5,430C 264.789,465.733 193.122,467.733 120.5,436C 92.8545,422.173 67.8545,404.673 45.5,383.5C 45.5,382.833 45.8333,382.5 46.5,382.5C 68.8545,403.673 93.8545,421.173 121.5,435C 213.05,473.641 297.717,462.308 375.5,401C 436.334,344.86 463.167,275.36 456,192.5C 446.577,135.986 422.077,87.3193 382.5,46.5C 382.5,45.8333 382.833,45.5 383.5,45.5 Z"/></g>
<g><path style="opacity:1" fill="#fe94a2" d="M 382.5,46.5 C 422.077,87.3193 446.577,135.986 456,192.5C 463.167,275.36 436.334,344.86 375.5,401C 297.717,462.308 213.05,473.641 121.5,435C 93.8545,421.173 68.8545,403.673 46.5,382.5C 153.938,273.562 261.938,165.062 370.5,57C 374.668,53.6638 378.668,50.1638 382.5,46.5 Z"/></g>
<g><path style="opacity:1" fill="#fe7888" d="M 385.5,68.5 C 388.959,69.436 391.793,71.436 394,74.5C 428.058,115.152 445.891,162.152 447.5,215.5C 378.833,215.5 310.167,215.5 241.5,215.5C 241.351,214.448 241.517,213.448 242,212.5C 290.035,164.632 337.868,116.632 385.5,68.5 Z"/></g>
<g><path style="opacity:1" fill="#fe132f" d="M 386.5,69.5 C 424.784,109.96 444.784,158.293 446.5,214.5C 378.499,214.667 310.499,214.5 242.5,214C 290.701,165.965 338.701,117.799 386.5,69.5 Z"/></g>
<g><path style="opacity:1" fill="#e71029" d="M 379.5,102.5 C 389.82,101.635 392.82,105.801 388.5,115C 379.417,118.38 375.584,115.213 377,105.5C 378.417,104.922 379.25,103.922 379.5,102.5 Z"/></g>
<g><path style="opacity:1" fill="#bf0b20" d="M 387.5,106.5 C 388.629,108.628 388.796,110.961 388,113.5C 385.299,116.002 382.799,116.002 380.5,113.5C 386.5,114.833 388.833,112.5 387.5,106.5 Z"/></g>
<g><path style="opacity:1" fill="#8e0615" d="M 387.5,106.5 C 388.833,112.5 386.5,114.833 380.5,113.5C 378.443,111.143 378.11,108.476 379.5,105.5C 382.484,104.035 385.151,104.369 387.5,106.5 Z"/></g>
<g><path style="opacity:1" fill="#290703" d="M 381.5,106.5 C 386.159,106.015 387.492,107.848 385.5,112C 380.728,112.81 379.395,110.977 381.5,106.5 Z"/></g>
<g><path style="opacity:1" fill="#de0f27" d="M 349.5,132.5 C 359.809,131.625 362.809,135.792 358.5,145C 349.417,148.38 345.584,145.213 347,135.5C 348.045,134.627 348.878,133.627 349.5,132.5 Z"/></g>
<g><path style="opacity:1" fill="#870513" d="M 350.5,135.5 C 352.833,135.5 355.167,135.5 357.5,135.5C 359.167,142.5 356.5,145.167 349.5,143.5C 349.279,140.721 349.612,138.054 350.5,135.5 Z"/></g>
<g><path style="opacity:1" fill="#290703" d="M 351.5,136.5 C 356.159,136.015 357.492,137.848 355.5,142C 350.728,142.81 349.395,140.977 351.5,136.5 Z"/></g>
<g><path style="opacity:1" fill="#de0f27" d="M 380.5,145.5 C 390.809,144.625 393.809,148.792 389.5,158C 380.417,161.38 376.584,158.213 378,148.5C 379.045,147.627 379.878,146.627 380.5,145.5 Z"/></g>
<g><path style="opacity:1" fill="#870513" d="M 381.5,148.5 C 383.833,148.5 386.167,148.5 388.5,148.5C 390.167,155.5 387.5,158.167 380.5,156.5C 380.279,153.721 380.612,151.054 381.5,148.5 Z"/></g>
<g><path style="opacity:1" fill="#290703" d="M 382.5,149.5 C 387.159,149.015 388.492,150.848 386.5,155C 381.728,155.81 380.395,153.977 382.5,149.5 Z"/></g>
<g><path style="opacity:1" fill="#de0f27" d="M 314.5,163.5 C 324.809,162.625 327.809,166.792 323.5,176C 314.417,179.38 310.584,176.213 312,166.5C 313.045,165.627 313.878,164.627 314.5,163.5 Z"/></g>
<g><path style="opacity:1" fill="#870513" d="M 315.5,166.5 C 317.833,166.5 320.167,166.5 322.5,166.5C 324.167,173.5 321.5,176.167 314.5,174.5C 314.279,171.721 314.612,169.054 315.5,166.5 Z"/></g>
<g><path style="opacity:1" fill="#290703" d="M 316.5,167.5 C 321.159,167.015 322.492,168.848 320.5,173C 315.728,173.81 314.395,171.977 316.5,167.5 Z"/></g>
<g><path style="opacity:1" fill="#e71029" d="M 408.5,166.5 C 418.82,165.635 421.82,169.801 417.5,179C 408.417,182.38 404.584,179.213 406,169.5C 407.417,168.922 408.25,167.922 408.5,166.5 Z"/></g>
<g><path style="opacity:1" fill="#bf0b20" d="M 416.5,170.5 C 417.629,172.628 417.796,174.961 417,177.5C 414.299,180.002 411.799,180.002 409.5,177.5C 415.5,178.833 417.833,176.5 416.5,170.5 Z"/></g>
<g><path style="opacity:1" fill="#8e0615" d="M 416.5,170.5 C 417.833,176.5 415.5,178.833 409.5,177.5C 407.443,175.143 407.11,172.476 408.5,169.5C 411.484,168.035 414.151,168.369 416.5,170.5 Z"/></g>
<g><path style="opacity:1" fill="#290703" d="M 410.5,170.5 C 415.159,170.015 416.492,171.848 414.5,176C 409.728,176.81 408.395,174.977 410.5,170.5 Z"/></g>
<g><path style="opacity:1" fill="#e71029" d="M 387.5,180.5 C 397.82,179.635 400.82,183.801 396.5,193C 387.417,196.38 383.584,193.213 385,183.5C 386.417,182.922 387.25,181.922 387.5,180.5 Z"/></g>
<g><path style="opacity:1" fill="#bf0b20" d="M 395.5,184.5 C 396.629,186.628 396.796,188.961 396,191.5C 393.299,194.002 390.799,194.002 388.5,191.5C 394.5,192.833 396.833,190.5 395.5,184.5 Z"/></g>
<g><path style="opacity:1" fill="#8e0615" d="M 395.5,184.5 C 396.833,190.5 394.5,192.833 388.5,191.5C 386.443,189.143 386.11,186.476 387.5,183.5C 390.484,182.035 393.151,182.369 395.5,184.5 Z"/></g>
<g><path style="opacity:1" fill="#290703" d="M 389.5,184.5 C 394.159,184.015 395.492,185.848 393.5,190C 388.728,190.81 387.395,188.977 389.5,184.5 Z"/></g>
<g><path style="opacity:1" fill="#e71029" d="M 279.5,182.5 C 289.82,181.635 292.82,185.801 288.5,195C 279.417,198.38 275.584,195.213 277,185.5C 278.417,184.922 279.25,183.922 279.5,182.5 Z"/></g>
<g><path style="opacity:1" fill="#bf0b20" d="M 287.5,186.5 C 288.629,188.628 288.796,190.961 288,193.5C 285.299,196.002 282.799,196.002 280.5,193.5C 286.5,194.833 288.833,192.5 287.5,186.5 Z"/></g>
<g><path style="opacity:1" fill="#8e0615" d="M 287.5,186.5 C 288.833,192.5 286.5,194.833 280.5,193.5C 278.443,191.143 278.11,188.476 279.5,185.5C 282.484,184.035 285.151,184.369 287.5,186.5 Z"/></g>
<g><path style="opacity:1" fill="#290703" d="M 281.5,186.5 C 286.159,186.015 287.492,187.848 285.5,192C 280.728,192.81 279.395,190.977 281.5,186.5 Z"/></g>
<g><path style="opacity:1" fill="#e71029" d="M 356.5,187.5 C 366.82,186.635 369.82,190.801 365.5,200C 356.417,203.38 352.584,200.213 354,190.5C 355.417,189.922 356.25,188.922 356.5,187.5 Z"/></g>
<g><path style="opacity:1" fill="#bf0b20" d="M 364.5,191.5 C 365.629,193.628 365.796,195.961 365,198.5C 362.299,201.002 359.799,201.002 357.5,198.5C 363.5,199.833 365.833,197.5 364.5,191.5 Z"/></g>
<g><path style="opacity:1" fill="#8e0615" d="M 364.5,191.5 C 365.833,197.5 363.5,199.833 357.5,198.5C 355.443,196.143 355.11,193.476 356.5,190.5C 359.484,189.035 362.151,189.369 364.5,191.5 Z"/></g>
<g><path style="opacity:1" fill="#290703" d="M 358.5,191.5 C 363.159,191.015 364.492,192.848 362.5,197C 357.728,197.81 356.395,195.977 358.5,191.5 Z"/></g>
<g><path style="opacity:1" fill="#fe7888" d="M 342.5,233.5 C 377.167,233.5 411.833,233.5 446.5,233.5C 443.862,284.414 426.028,329.08 393,367.5C 389.953,370.883 386.62,373.883 383,376.5C 380.511,374.681 378.011,372.848 375.5,371C 331,326.5 286.5,282 242,237.5C 241.517,236.552 241.351,235.552 241.5,234.5C 275.337,234.832 309.004,234.498 342.5,233.5 Z"/></g>
<g><path style="opacity:1" fill="#fe132f" d="M 343.5,234.5 C 377.5,234.5 411.5,234.5 445.5,234.5C 442.037,289.407 421.204,336.407 383,375.5C 335.861,329.361 289.028,282.861 242.5,236C 276.336,235.832 310.002,235.332 343.5,234.5 Z"/></g>
<g><path style="opacity:1" fill="#fe7888" d="M 203.5,248.5 C 204.5,248.5 205.5,248.5 206.5,248.5C 207.442,314.826 207.775,381.16 207.5,447.5C 156.927,444.596 112.26,427.096 73.5,395C 70.7807,392.618 68.4474,389.951 66.5,387C 111.995,340.672 157.661,294.505 203.5,248.5 Z"/></g>
<g><path style="opacity:1" fill="#de0f27" d="M 274.5,243.5 C 284.809,242.625 287.809,246.792 283.5,256C 274.417,259.38 270.584,256.213 272,246.5C 273.045,245.627 273.878,244.627 274.5,243.5 Z"/></g>
<g><path style="opacity:1" fill="#fe132f" d="M 204.5,249.5 C 205.327,254.651 205.827,259.984 206,265.5C 206.5,325.832 206.667,386.166 206.5,446.5C 152.932,443.036 106.599,423.203 67.5,387C 113.368,341.299 159.035,295.465 204.5,249.5 Z"/></g>
<g><path style="opacity:1" fill="#fe7888" d="M 225.5,250.5 C 226.552,250.351 227.552,250.517 228.5,251C 275.404,297.404 321.738,344.237 367.5,391.5C 367.124,393.383 366.124,394.883 364.5,396C 324.086,428.644 277.752,445.811 225.5,447.5C 225.5,381.833 225.5,316.167 225.5,250.5 Z"/></g>
<g><path style="opacity:1" fill="#fe132f" d="M 226.5,251.5 C 273.479,297.812 320.146,344.479 366.5,391.5C 326.56,426.271 279.893,444.604 226.5,446.5C 226.5,381.5 226.5,316.5 226.5,251.5 Z"/></g>
<g><path style="opacity:1" fill="#870513" d="M 275.5,246.5 C 277.833,246.5 280.167,246.5 282.5,246.5C 284.167,253.5 281.5,256.167 274.5,254.5C 274.279,251.721 274.612,249.054 275.5,246.5 Z"/></g>
<g><path style="opacity:1" fill="#290703" d="M 276.5,247.5 C 281.159,247.015 282.492,248.848 280.5,253C 275.728,253.81 274.395,251.977 276.5,247.5 Z"/></g>
<g><path style="opacity:1" fill="#e71029" d="M 322.5,241.5 C 332.82,240.635 335.82,244.801 331.5,254C 322.417,257.38 318.584,254.213 320,244.5C 321.417,243.922 322.25,242.922 322.5,241.5 Z"/></g>
<g><path style="opacity:1" fill="#bf0b20" d="M 330.5,245.5 C 331.629,247.628 331.796,249.961 331,252.5C 328.299,255.002 325.799,255.002 323.5,252.5C 329.5,253.833 331.833,251.5 330.5,245.5 Z"/></g>
<g><path style="opacity:1" fill="#8e0615" d="M 330.5,245.5 C 331.833,251.5 329.5,253.833 323.5,252.5C 321.443,250.143 321.11,247.476 322.5,244.5C 325.484,243.035 328.151,243.369 330.5,245.5 Z"/></g>
<g><path style="opacity:1" fill="#290703" d="M 324.5,245.5 C 329.159,245.015 330.492,246.848 328.5,251C 323.728,251.81 322.395,249.977 324.5,245.5 Z"/></g>
<g><path style="opacity:1" fill="#de0f27" d="M 365.5,253.5 C 375.809,252.625 378.809,256.792 374.5,266C 365.417,269.38 361.584,266.213 363,256.5C 364.045,255.627 364.878,254.627 365.5,253.5 Z"/></g>
<g><path style="opacity:1" fill="#e71029" d="M 423.5,247.5 C 433.82,246.635 436.82,250.801 432.5,260C 423.417,263.38 419.584,260.213 421,250.5C 422.417,249.922 423.25,248.922 423.5,247.5 Z"/></g>
<g><path style="opacity:1" fill="#bf0b20" d="M 431.5,251.5 C 432.629,253.628 432.796,255.961 432,258.5C 429.299,261.002 426.799,261.002 424.5,258.5C 430.5,259.833 432.833,257.5 431.5,251.5 Z"/></g>
<g><path style="opacity:1" fill="#8e0615" d="M 431.5,251.5 C 432.833,257.5 430.5,259.833 424.5,258.5C 422.443,256.143 422.11,253.476 423.5,250.5C 426.484,249.035 429.151,249.369 431.5,251.5 Z"/></g>
<g><path style="opacity:1" fill="#290703" d="M 425.5,251.5 C 430.159,251.015 431.492,252.848 429.5,257C 424.728,257.81 423.395,255.977 425.5,251.5 Z"/></g>
<g><path style="opacity:1" fill="#870513" d="M 366.5,256.5 C 368.833,256.5 371.167,256.5 373.5,256.5C 375.167,263.5 372.5,266.167 365.5,264.5C 365.279,261.721 365.612,259.054 366.5,256.5 Z"/></g>
<g><path style="opacity:1" fill="#290703" d="M 367.5,257.5 C 372.159,257.015 373.492,258.848 371.5,263C 366.728,263.81 365.395,261.977 367.5,257.5 Z"/></g>
<g><path style="opacity:1" fill="#e71029" d="M 302.5,259.5 C 312.82,258.635 315.82,262.801 311.5,272C 302.417,275.38 298.584,272.213 300,262.5C 301.417,261.922 302.25,260.922 302.5,259.5 Z"/></g>
<g><path style="opacity:1" fill="#bf0b20" d="M 310.5,263.5 C 311.629,265.628 311.796,267.961 311,270.5C 308.299,273.002 305.799,273.002 303.5,270.5C 309.5,271.833 311.833,269.5 310.5,263.5 Z"/></g>
<g><path style="opacity:1" fill="#8e0615" d="M 310.5,263.5 C 311.833,269.5 309.5,271.833 303.5,270.5C 301.443,268.143 301.11,265.476 302.5,262.5C 305.484,261.035 308.151,261.369 310.5,263.5 Z"/></g>
<g><path style="opacity:1" fill="#290703" d="M 304.5,263.5 C 309.159,263.015 310.492,264.848 308.5,269C 303.728,269.81 302.395,267.977 304.5,263.5 Z"/></g>
<g><path style="opacity:1" fill="#de0f27" d="M 345.5,267.5 C 355.809,266.625 358.809,270.792 354.5,280C 345.417,283.38 341.584,280.213 343,270.5C 344.045,269.627 344.878,268.627 345.5,267.5 Z"/></g>
<g><path style="opacity:1" fill="#de0f27" d="M 188.5,271.5 C 198.809,270.625 201.809,274.792 197.5,284C 188.417,287.38 184.584,284.213 186,274.5C 187.045,273.627 187.878,272.627 188.5,271.5 Z"/></g>
<g><path style="opacity:1" fill="#870513" d="M 346.5,270.5 C 348.833,270.5 351.167,270.5 353.5,270.5C 355.167,277.5 352.5,280.167 345.5,278.5C 345.279,275.721 345.612,273.054 346.5,270.5 Z"/></g>
<g><path style="opacity:1" fill="#290703" d="M 347.5,271.5 C 352.159,271.015 353.492,272.848 351.5,277C 346.728,277.81 345.395,275.977 347.5,271.5 Z"/></g>
<g><path style="opacity:1" fill="#870513" d="M 189.5,274.5 C 191.833,274.5 194.167,274.5 196.5,274.5C 198.167,281.5 195.5,284.167 188.5,282.5C 188.279,279.721 188.612,277.054 189.5,274.5 Z"/></g>
<g><path style="opacity:1" fill="#290703" d="M 190.5,275.5 C 195.159,275.015 196.492,276.848 194.5,281C 189.728,281.81 188.395,279.977 190.5,275.5 Z"/></g>
<g><path style="opacity:1" fill="#de0f27" d="M 310.5,276.5 C 320.809,275.625 323.809,279.792 319.5,289C 310.417,292.38 306.584,289.213 308,279.5C 309.045,278.627 309.878,277.627 310.5,276.5 Z"/></g>
<g><path style="opacity:1" fill="#de0f27" d="M 238.5,280.5 C 248.809,279.625 251.809,283.792 247.5,293C 238.417,296.38 234.584,293.213 236,283.5C 237.045,282.627 237.878,281.627 238.5,280.5 Z"/></g>
<g><path style="opacity:1" fill="#870513" d="M 311.5,279.5 C 313.833,279.5 316.167,279.5 318.5,279.5C 320.167,286.5 317.5,289.167 310.5,287.5C 310.279,284.721 310.612,282.054 311.5,279.5 Z"/></g>
<g><path style="opacity:1" fill="#290703" d="M 312.5,280.5 C 317.159,280.015 318.492,281.848 316.5,286C 311.728,286.81 310.395,284.977 312.5,280.5 Z"/></g>
<g><path style="opacity:1" fill="#870513" d="M 239.5,283.5 C 241.833,283.5 244.167,283.5 246.5,283.5C 248.167,290.5 245.5,293.167 238.5,291.5C 238.279,288.721 238.612,286.054 239.5,283.5 Z"/></g>
<g><path style="opacity:1" fill="#290703" d="M 240.5,284.5 C 245.159,284.015 246.492,285.848 244.5,290C 239.728,290.81 238.395,288.977 240.5,284.5 Z"/></g>
<g><path style="opacity:1" fill="#de0f27" d="M 376.5,293.5 C 386.809,292.625 389.809,296.792 385.5,306C 376.417,309.38 372.584,306.213 374,296.5C 375.045,295.627 375.878,294.627 376.5,293.5 Z"/></g>
<g><path style="opacity:1" fill="#de0f27" d="M 184.5,297.5 C 194.809,296.625 197.809,300.792 193.5,310C 184.417,313.38 180.584,310.213 182,300.5C 183.045,299.627 183.878,298.627 184.5,297.5 Z"/></g>
<g><path style="opacity:1" fill="#870513" d="M 377.5,296.5 C 379.833,296.5 382.167,296.5 384.5,296.5C 386.167,303.5 383.5,306.167 376.5,304.5C 376.279,301.721 376.612,299.054 377.5,296.5 Z"/></g>
<g><path style="opacity:1" fill="#290703" d="M 378.5,297.5 C 383.159,297.015 384.492,298.848 382.5,303C 377.728,303.81 376.395,301.977 378.5,297.5 Z"/></g>
<g><path style="opacity:1" fill="#e71029" d="M 402.5,291.5 C 412.82,290.635 415.82,294.801 411.5,304C 402.417,307.38 398.584,304.213 400,294.5C 401.417,293.922 402.25,292.922 402.5,291.5 Z"/></g>
<g><path style="opacity:1" fill="#bf0b20" d="M 410.5,295.5 C 411.629,297.628 411.796,299.961 411,302.5C 408.299,305.002 405.799,305.002 403.5,302.5C 409.5,303.833 411.833,301.5 410.5,295.5 Z"/></g>
<g><path style="opacity:1" fill="#8e0615" d="M 410.5,295.5 C 411.833,301.5 409.5,303.833 403.5,302.5C 401.443,300.143 401.11,297.476 402.5,294.5C 405.484,293.035 408.151,293.369 410.5,295.5 Z"/></g>
<g><path style="opacity:1" fill="#290703" d="M 404.5,295.5 C 409.159,295.015 410.492,296.848 408.5,301C 403.728,301.81 402.395,299.977 404.5,295.5 Z"/></g>
<g><path style="opacity:1" fill="#870513" d="M 185.5,300.5 C 187.833,300.5 190.167,300.5 192.5,300.5C 194.167,307.5 191.5,310.167 184.5,308.5C 184.279,305.721 184.612,303.054 185.5,300.5 Z"/></g>
<g><path style="opacity:1" fill="#290703" d="M 186.5,301.5 C 191.159,301.015 192.492,302.848 190.5,307C 185.728,307.81 184.395,305.977 186.5,301.5 Z"/></g>
<g><path style="opacity:1" fill="#de0f27" d="M 257.5,302.5 C 267.809,301.625 270.809,305.792 266.5,315C 257.417,318.38 253.584,315.213 255,305.5C 256.045,304.627 256.878,303.627 257.5,302.5 Z"/></g>
<g><path style="opacity:1" fill="#870513" d="M 258.5,305.5 C 260.833,305.5 263.167,305.5 265.5,305.5C 267.167,312.5 264.5,315.167 257.5,313.5C 257.279,310.721 257.612,308.054 258.5,305.5 Z"/></g>
<g><path style="opacity:1" fill="#290703" d="M 259.5,306.5 C 264.159,306.015 265.492,307.848 263.5,312C 258.728,312.81 257.395,310.977 259.5,306.5 Z"/></g>
<g><path style="opacity:1" fill="#de0f27" d="M 180.5,318.5 C 190.809,317.625 193.809,321.792 189.5,331C 180.417,334.38 176.584,331.213 178,321.5C 179.045,320.627 179.878,319.627 180.5,318.5 Z"/></g>
<g><path style="opacity:1" fill="#e71029" d="M 153.5,311.5 C 163.82,310.635 166.82,314.801 162.5,324C 153.417,327.38 149.584,324.213 151,314.5C 152.417,313.922 153.25,312.922 153.5,311.5 Z"/></g>
<g><path style="opacity:1" fill="#bf0b20" d="M 161.5,315.5 C 162.629,317.628 162.796,319.961 162,322.5C 159.299,325.002 156.799,325.002 154.5,322.5C 160.5,323.833 162.833,321.5 161.5,315.5 Z"/></g>
<g><path style="opacity:1" fill="#8e0615" d="M 161.5,315.5 C 162.833,321.5 160.5,323.833 154.5,322.5C 152.443,320.143 152.11,317.476 153.5,314.5C 156.484,313.035 159.151,313.369 161.5,315.5 Z"/></g>
<g><path style="opacity:1" fill="#290703" d="M 155.5,315.5 C 160.159,315.015 161.492,316.848 159.5,321C 154.728,321.81 153.395,319.977 155.5,315.5 Z"/></g>
<g><path style="opacity:1" fill="#870513" d="M 181.5,321.5 C 183.833,321.5 186.167,321.5 188.5,321.5C 190.167,328.5 187.5,331.167 180.5,329.5C 180.279,326.721 180.612,324.054 181.5,321.5 Z"/></g>
<g><path style="opacity:1" fill="#290703" d="M 182.5,322.5 C 187.159,322.015 188.492,323.848 186.5,328C 181.728,328.81 180.395,326.977 182.5,322.5 Z"/></g>
<g><path style="opacity:1" fill="#e71029" d="M 360.5,321.5 C 370.82,320.635 373.82,324.801 369.5,334C 360.417,337.38 356.584,334.213 358,324.5C 359.417,323.922 360.25,322.922 360.5,321.5 Z"/></g>
<g><path style="opacity:1" fill="#bf0b20" d="M 368.5,325.5 C 369.629,327.628 369.796,329.961 369,332.5C 366.299,335.002 363.799,335.002 361.5,332.5C 367.5,333.833 369.833,331.5 368.5,325.5 Z"/></g>
<g><path style="opacity:1" fill="#8e0615" d="M 368.5,325.5 C 369.833,331.5 367.5,333.833 361.5,332.5C 359.443,330.143 359.11,327.476 360.5,324.5C 363.484,323.035 366.151,323.369 368.5,325.5 Z"/></g>
<g><path style="opacity:1" fill="#290703" d="M 362.5,325.5 C 367.159,325.015 368.492,326.848 366.5,331C 361.728,331.81 360.395,329.977 362.5,325.5 Z"/></g>
<g><path style="opacity:1" fill="#de0f27" d="M 131.5,338.5 C 141.809,337.625 144.809,341.792 140.5,351C 131.417,354.38 127.584,351.213 129,341.5C 130.045,340.627 130.878,339.627 131.5,338.5 Z"/></g>
<g><path style="opacity:1" fill="#e71029" d="M 238.5,330.5 C 248.82,329.635 251.82,333.801 247.5,343C 238.417,346.38 234.584,343.213 236,333.5C 237.417,332.922 238.25,331.922 238.5,330.5 Z"/></g>
<g><path style="opacity:1" fill="#bf0b20" d="M 246.5,334.5 C 247.629,336.628 247.796,338.961 247,341.5C 244.299,344.002 241.799,344.002 239.5,341.5C 245.5,342.833 247.833,340.5 246.5,334.5 Z"/></g>
<g><path style="opacity:1" fill="#8e0615" d="M 246.5,334.5 C 247.833,340.5 245.5,342.833 239.5,341.5C 237.443,339.143 237.11,336.476 238.5,333.5C 241.484,332.035 244.151,332.369 246.5,334.5 Z"/></g>
<g><path style="opacity:1" fill="#290703" d="M 240.5,334.5 C 245.159,334.015 246.492,335.848 244.5,340C 239.728,340.81 238.395,338.977 240.5,334.5 Z"/></g>
<g><path style="opacity:1" fill="#e71029" d="M 287.5,333.5 C 297.82,332.635 300.82,336.801 296.5,346C 287.417,349.38 283.584,346.213 285,336.5C 286.417,335.922 287.25,334.922 287.5,333.5 Z"/></g>
<g><path style="opacity:1" fill="#bf0b20" d="M 295.5,337.5 C 296.629,339.628 296.796,341.961 296,344.5C 293.299,347.002 290.799,347.002 288.5,344.5C 294.5,345.833 296.833,343.5 295.5,337.5 Z"/></g>
<g><path style="opacity:1" fill="#8e0615" d="M 295.5,337.5 C 296.833,343.5 294.5,345.833 288.5,344.5C 286.443,342.143 286.11,339.476 287.5,336.5C 290.484,335.035 293.151,335.369 295.5,337.5 Z"/></g>
<g><path style="opacity:1" fill="#290703" d="M 289.5,337.5 C 294.159,337.015 295.492,338.848 293.5,343C 288.728,343.81 287.395,341.977 289.5,337.5 Z"/></g>
<g><path style="opacity:1" fill="#870513" d="M 132.5,341.5 C 134.833,341.5 137.167,341.5 139.5,341.5C 141.167,348.5 138.5,351.167 131.5,349.5C 131.279,346.721 131.612,344.054 132.5,341.5 Z"/></g>
<g><path style="opacity:1" fill="#290703" d="M 133.5,342.5 C 138.159,342.015 139.492,343.848 137.5,348C 132.728,348.81 131.395,346.977 133.5,342.5 Z"/></g>
<g><path style="opacity:1" fill="#e71029" d="M 265.5,347.5 C 275.82,346.635 278.82,350.801 274.5,360C 265.417,363.38 261.584,360.213 263,350.5C 264.417,349.922 265.25,348.922 265.5,347.5 Z"/></g>
<g><path style="opacity:1" fill="#bf0b20" d="M 273.5,351.5 C 274.629,353.628 274.796,355.961 274,358.5C 271.299,361.002 268.799,361.002 266.5,358.5C 272.5,359.833 274.833,357.5 273.5,351.5 Z"/></g>
<g><path style="opacity:1" fill="#8e0615" d="M 273.5,351.5 C 274.833,357.5 272.5,359.833 266.5,358.5C 264.443,356.143 264.11,353.476 265.5,350.5C 268.484,349.035 271.151,349.369 273.5,351.5 Z"/></g>
<g><path style="opacity:1" fill="#290703" d="M 267.5,351.5 C 272.159,351.015 273.492,352.848 271.5,357C 266.728,357.81 265.395,355.977 267.5,351.5 Z"/></g>
<g><path style="opacity:1" fill="#de0f27" d="M 242.5,364.5 C 252.809,363.625 255.809,367.792 251.5,377C 242.417,380.38 238.584,377.213 240,367.5C 241.045,366.627 241.878,365.627 242.5,364.5 Z"/></g>
<g><path style="opacity:1" fill="#e71029" d="M 154.5,357.5 C 164.82,356.635 167.82,360.801 163.5,370C 154.417,373.38 150.584,370.213 152,360.5C 153.417,359.922 154.25,358.922 154.5,357.5 Z"/></g>
<g><path style="opacity:1" fill="#bf0b20" d="M 162.5,361.5 C 163.629,363.628 163.796,365.961 163,368.5C 160.299,371.002 157.799,371.002 155.5,368.5C 161.5,369.833 163.833,367.5 162.5,361.5 Z"/></g>
<g><path style="opacity:1" fill="#8e0615" d="M 162.5,361.5 C 163.833,367.5 161.5,369.833 155.5,368.5C 153.443,366.143 153.11,363.476 154.5,360.5C 157.484,359.035 160.151,359.369 162.5,361.5 Z"/></g>
<g><path style="opacity:1" fill="#290703" d="M 156.5,361.5 C 161.159,361.015 162.492,362.848 160.5,367C 155.728,367.81 154.395,365.977 156.5,361.5 Z"/></g>
<g><path style="opacity:1" fill="#de0f27" d="M 297.5,365.5 C 307.809,364.625 310.809,368.792 306.5,378C 297.417,381.38 293.584,378.213 295,368.5C 296.045,367.627 296.878,366.627 297.5,365.5 Z"/></g>
<g><path style="opacity:1" fill="#e71029" d="M 185.5,359.5 C 195.82,358.635 198.82,362.801 194.5,372C 185.417,375.38 181.584,372.213 183,362.5C 184.417,361.922 185.25,360.922 185.5,359.5 Z"/></g>
<g><path style="opacity:1" fill="#bf0b20" d="M 193.5,363.5 C 194.629,365.628 194.796,367.961 194,370.5C 191.299,373.002 188.799,373.002 186.5,370.5C 192.5,371.833 194.833,369.5 193.5,363.5 Z"/></g>
<g><path style="opacity:1" fill="#8e0615" d="M 193.5,363.5 C 194.833,369.5 192.5,371.833 186.5,370.5C 184.443,368.143 184.11,365.476 185.5,362.5C 188.484,361.035 191.151,361.369 193.5,363.5 Z"/></g>
<g><path style="opacity:1" fill="#290703" d="M 187.5,363.5 C 192.159,363.015 193.492,364.848 191.5,369C 186.728,369.81 185.395,367.977 187.5,363.5 Z"/></g>
<g><path style="opacity:1" fill="#870513" d="M 243.5,367.5 C 245.833,367.5 248.167,367.5 250.5,367.5C 252.167,374.5 249.5,377.167 242.5,375.5C 242.279,372.721 242.612,370.054 243.5,367.5 Z"/></g>
<g><path style="opacity:1" fill="#290703" d="M 244.5,368.5 C 249.159,368.015 250.492,369.848 248.5,374C 243.728,374.81 242.395,372.977 244.5,368.5 Z"/></g>
<g><path style="opacity:1" fill="#870513" d="M 298.5,368.5 C 300.833,368.5 303.167,368.5 305.5,368.5C 307.167,375.5 304.5,378.167 297.5,376.5C 297.279,373.721 297.612,371.054 298.5,368.5 Z"/></g>
<g><path style="opacity:1" fill="#290703" d="M 299.5,369.5 C 304.159,369.015 305.492,370.848 303.5,375C 298.728,375.81 297.395,373.977 299.5,369.5 Z"/></g>
<g><path style="opacity:1" fill="#e71029" d="M 124.5,368.5 C 134.82,367.635 137.82,371.801 133.5,381C 124.417,384.38 120.584,381.213 122,371.5C 123.417,370.922 124.25,369.922 124.5,368.5 Z"/></g>
<g><path style="opacity:1" fill="#bf0b20" d="M 132.5,372.5 C 133.629,374.628 133.796,376.961 133,379.5C 130.299,382.002 127.799,382.002 125.5,379.5C 131.5,380.833 133.833,378.5 132.5,372.5 Z"/></g>
<g><path style="opacity:1" fill="#8e0615" d="M 132.5,372.5 C 133.833,378.5 131.5,380.833 125.5,379.5C 123.443,377.143 123.11,374.476 124.5,371.5C 127.484,370.035 130.151,370.369 132.5,372.5 Z"/></g>
<g><path style="opacity:1" fill="#290703" d="M 126.5,372.5 C 131.159,372.015 132.492,373.848 130.5,378C 125.728,378.81 124.395,376.977 126.5,372.5 Z"/></g>
<g><path style="opacity:1" fill="#de0f27" d="M 88.5,381.5 C 98.8085,380.625 101.809,384.792 97.5,394C 88.4169,397.38 84.5836,394.213 86,384.5C 87.045,383.627 87.8783,382.627 88.5,381.5 Z"/></g>
<g><path style="opacity:1" fill="#870513" d="M 89.5,384.5 C 91.8333,384.5 94.1667,384.5 96.5,384.5C 98.1667,391.5 95.5,394.167 88.5,392.5C 88.2786,389.721 88.612,387.054 89.5,384.5 Z"/></g>
<g><path style="opacity:1" fill="#290703" d="M 90.5,385.5 C 95.1585,385.015 96.4919,386.848 94.5,391C 89.7282,391.81 88.3948,389.977 90.5,385.5 Z"/></g>
<g><path style="opacity:1" fill="#de0f27" d="M 332.5,386.5 C 342.809,385.625 345.809,389.792 341.5,399C 332.417,402.38 328.584,399.213 330,389.5C 331.045,388.627 331.878,387.627 332.5,386.5 Z"/></g>
<g><path style="opacity:1" fill="#870513" d="M 333.5,389.5 C 335.833,389.5 338.167,389.5 340.5,389.5C 342.167,396.5 339.5,399.167 332.5,397.5C 332.279,394.721 332.612,392.054 333.5,389.5 Z"/></g>
<g><path style="opacity:1" fill="#290703" d="M 334.5,390.5 C 339.159,390.015 340.492,391.848 338.5,396C 333.728,396.81 332.395,394.977 334.5,390.5 Z"/></g>
<g><path style="opacity:1" fill="#e71029" d="M 247.5,391.5 C 257.82,390.635 260.82,394.801 256.5,404C 247.417,407.38 243.584,404.213 245,394.5C 246.417,393.922 247.25,392.922 247.5,391.5 Z"/></g>
<g><path style="opacity:1" fill="#bf0b20" d="M 255.5,395.5 C 256.629,397.628 256.796,399.961 256,402.5C 253.299,405.002 250.799,405.002 248.5,402.5C 254.5,403.833 256.833,401.5 255.5,395.5 Z"/></g>
<g><path style="opacity:1" fill="#8e0615" d="M 255.5,395.5 C 256.833,401.5 254.5,403.833 248.5,402.5C 246.443,400.143 246.11,397.476 247.5,394.5C 250.484,393.035 253.151,393.369 255.5,395.5 Z"/></g>
<g><path style="opacity:1" fill="#290703" d="M 249.5,395.5 C 254.159,395.015 255.492,396.848 253.5,401C 248.728,401.81 247.395,399.977 249.5,395.5 Z"/></g>
<g><path style="opacity:1" fill="#e71029" d="M 147.5,396.5 C 157.82,395.635 160.82,399.801 156.5,409C 147.417,412.38 143.584,409.213 145,399.5C 146.417,398.922 147.25,397.922 147.5,396.5 Z"/></g>
<g><path style="opacity:1" fill="#bf0b20" d="M 155.5,400.5 C 156.629,402.628 156.796,404.961 156,407.5C 153.299,410.002 150.799,410.002 148.5,407.5C 154.5,408.833 156.833,406.5 155.5,400.5 Z"/></g>
<g><path style="opacity:1" fill="#8e0615" d="M 155.5,400.5 C 156.833,406.5 154.5,408.833 148.5,407.5C 146.443,405.143 146.11,402.476 147.5,399.5C 150.484,398.035 153.151,398.369 155.5,400.5 Z"/></g>
<g><path style="opacity:1" fill="#290703" d="M 149.5,400.5 C 154.159,400.015 155.492,401.848 153.5,406C 148.728,406.81 147.395,404.977 149.5,400.5 Z"/></g>
<g><path style="opacity:1" fill="#de0f27" d="M 184.5,405.5 C 194.809,404.625 197.809,408.792 193.5,418C 184.417,421.38 180.584,418.213 182,408.5C 183.045,407.627 183.878,406.627 184.5,405.5 Z"/></g>
<g><path style="opacity:1" fill="#870513" d="M 185.5,408.5 C 187.833,408.5 190.167,408.5 192.5,408.5C 194.167,415.5 191.5,418.167 184.5,416.5C 184.279,413.721 184.612,411.054 185.5,408.5 Z"/></g>
<g><path style="opacity:1" fill="#290703" d="M 186.5,409.5 C 191.159,409.015 192.492,410.848 190.5,415C 185.728,415.81 184.395,413.977 186.5,409.5 Z"/></g>
<g><path style="opacity:1" fill="#e71029" d="M 284.5,403.5 C 294.82,402.635 297.82,406.801 293.5,416C 284.417,419.38 280.584,416.213 282,406.5C 283.417,405.922 284.25,404.922 284.5,403.5 Z"/></g>
<g><path style="opacity:1" fill="#bf0b20" d="M 292.5,407.5 C 293.629,409.628 293.796,411.961 293,414.5C 290.299,417.002 287.799,417.002 285.5,414.5C 291.5,415.833 293.833,413.5 292.5,407.5 Z"/></g>
<g><path style="opacity:1" fill="#8e0615" d="M 292.5,407.5 C 293.833,413.5 291.5,415.833 285.5,414.5C 283.443,412.143 283.11,409.476 284.5,406.5C 287.484,405.035 290.151,405.369 292.5,407.5 Z"/></g>
<g><path style="opacity:1" fill="#290703" d="M 286.5,407.5 C 291.159,407.015 292.492,408.848 290.5,413C 285.728,413.81 284.395,411.977 286.5,407.5 Z"/></g>
<g><path style="opacity:1" fill="#e71029" d="M 238.5,419.5 C 248.82,418.635 251.82,422.801 247.5,432C 238.417,435.38 234.584,432.213 236,422.5C 237.417,421.922 238.25,420.922 238.5,419.5 Z"/></g>
<g><path style="opacity:1" fill="#bf0b20" d="M 246.5,423.5 C 247.629,425.628 247.796,427.961 247,430.5C 244.299,433.002 241.799,433.002 239.5,430.5C 245.5,431.833 247.833,429.5 246.5,423.5 Z"/></g>
<g><path style="opacity:1" fill="#8e0615" d="M 246.5,423.5 C 247.833,429.5 245.5,431.833 239.5,430.5C 237.443,428.143 237.11,425.476 238.5,422.5C 241.484,421.035 244.151,421.369 246.5,423.5 Z"/></g>
<g><path style="opacity:1" fill="#290703" d="M 240.5,423.5 C 245.159,423.015 246.492,424.848 244.5,429C 239.728,429.81 238.395,427.977 240.5,423.5 Z"/></g>
</svg>
