<?xml version="1.0" encoding="UTF-8"?>
<!DOCTYPE svg PUBLIC "-//W3C//DTD SVG 1.1//EN" "http://www.w3.org/Graphics/SVG/1.1/DTD/svg11.dtd">
<svg xmlns="http://www.w3.org/2000/svg" version="1.1" width="640px" height="640px" style="shape-rendering:geometricPrecision; text-rendering:geometricPrecision; image-rendering:optimizeQuality; fill-rule:evenodd; clip-rule:evenodd" xmlns:xlink="http://www.w3.org/1999/xlink">
<g><path style="opacity:0.916" fill="#252525" d="M 546.5,385.5 C 545.761,385.369 545.094,385.536 544.5,386C 545.252,386.671 545.586,387.504 545.5,388.5C 532.375,431.847 509.042,468.181 475.5,497.5C 474.167,497.5 473.5,498.167 473.5,499.5C 413.514,547.962 345.181,565.128 268.5,551C 180.011,527.84 121.177,473.007 92,386.5C 68.2068,289.49 92.3735,207.323 164.5,140C 169.327,136.668 173.993,133.168 178.5,129.5C 180.027,129.573 181.027,128.906 181.5,127.5C 222.417,97.8647 268.417,83.1981 319.5,83.5C 394.054,84.7052 455.22,113.372 503,169.5C 552.983,234.143 567.483,306.143 546.5,385.5 Z M 240.5,521.5 C 240.167,520.5 239.5,519.833 238.5,519.5C 186.865,498.214 148.698,462.548 124,412.5C 116.2,396.236 110.7,379.236 107.5,361.5C 107.672,360.508 107.338,359.842 106.5,359.5C 94.9579,281.257 116.958,214.757 172.5,160C 233.344,107.379 303.011,91.3791 381.5,112C 460.351,138.234 510.184,191.734 531,272.5C 545.084,348.244 526.418,414.244 475,470.5C 407.57,534.325 329.403,551.325 240.5,521.5 Z"/></g>
<g><path style="opacity:0.165" fill="#252525" d="M 181.5,127.5 C 181.027,128.906 180.027,129.573 178.5,129.5C 178.973,128.094 179.973,127.427 181.5,127.5 Z"/></g>
<g><path style="opacity:0.973" fill="#252525" d="M 329.5,198.5 C 344.833,198.5 360.167,198.5 375.5,198.5C 375.5,212.833 375.5,227.167 375.5,241.5C 365.161,241.334 354.828,241.5 344.5,242C 343.377,243.044 342.044,243.71 340.5,244C 339.773,245.399 339.273,246.899 339,248.5C 338.5,255.826 338.334,263.159 338.5,270.5C 351.167,270.5 363.833,270.5 376.5,270.5C 375.408,286.902 373.741,303.235 371.5,319.5C 359.852,320.499 348.186,320.832 336.5,320.5C 336.5,360.5 336.5,400.5 336.5,440.5C 319.833,440.5 303.167,440.5 286.5,440.5C 286.5,400.5 286.5,360.5 286.5,320.5C 278.5,320.5 270.5,320.5 262.5,320.5C 262.5,303.833 262.5,287.167 262.5,270.5C 270.5,270.5 278.5,270.5 286.5,270.5C 286.185,258.128 286.685,245.795 288,233.5C 294.337,212.719 308.171,201.052 329.5,198.5 Z"/></g>
<g><path style="opacity:0.244" fill="#242524" d="M 106.5,359.5 C 107.338,359.842 107.672,360.508 107.5,361.5C 105.302,361.591 104.969,360.925 106.5,359.5 Z"/></g>
<g><path style="opacity:0.326" fill="#242524" d="M 546.5,385.5 C 546.737,386.791 546.404,387.791 545.5,388.5C 545.586,387.504 545.252,386.671 544.5,386C 545.094,385.536 545.761,385.369 546.5,385.5 Z"/></g>
<g><path style="opacity:0.073" fill="#242524" d="M 475.5,497.5 C 475.167,498.5 474.5,499.167 473.5,499.5C 473.5,498.167 474.167,497.5 475.5,497.5 Z"/></g>
<g><path style="opacity:0.141" fill="#242524" d="M 238.5,519.5 C 239.5,519.833 240.167,520.5 240.5,521.5C 239.167,521.5 238.5,520.833 238.5,519.5 Z"/></g>
</svg>
