<?xml version="1.0" encoding="UTF-8"?>
<!DOCTYPE svg PUBLIC "-//W3C//DTD SVG 1.1//EN" "http://www.w3.org/Graphics/SVG/1.1/DTD/svg11.dtd">
<svg xmlns="http://www.w3.org/2000/svg" version="1.1" width="512px" height="511px" style="shape-rendering:geometricPrecision; text-rendering:geometricPrecision; image-rendering:optimizeQuality; fill-rule:evenodd; clip-rule:evenodd" xmlns:xlink="http://www.w3.org/1999/xlink">
<g><path style="opacity:1" fill="#000000" d="M 511.5,184.5 C 511.5,200.167 511.5,215.833 511.5,231.5C 507.105,237.403 502.105,242.903 496.5,248C 463.99,271.088 431.657,294.422 399.5,318C 397.259,319.739 395.592,321.906 394.5,324.5C 406.897,362.859 419.397,401.192 432,439.5C 440.474,467.692 431.974,488.859 406.5,503C 388.997,509.011 372.33,507.344 356.5,498C 323.03,472.765 289.03,448.265 254.5,424.5C 219.97,448.265 185.97,472.765 152.5,498C 136.67,507.344 120.003,509.011 102.5,503C 80.1635,491.16 70.9968,472.66 75,447.5C 87.866,406.402 101.033,365.402 114.5,324.5C 113.408,321.906 111.741,319.739 109.5,318C 77.3433,294.422 45.01,271.088 12.5,248C 7.93568,243.605 3.60235,239.105 -0.5,234.5C -0.5,216.833 -0.5,199.167 -0.5,181.5C 6.43492,170.187 16.4349,163.02 29.5,160C 73.1667,159.667 116.833,159.333 160.5,159C 166.378,159.123 169.878,156.29 171,150.5C 183.872,109.216 197.539,68.2159 212,27.5C 224.574,8.96192 242.074,1.46192 264.5,5C 278.613,7.78263 289.447,15.2826 297,27.5C 311.461,68.2159 325.128,109.216 338,150.5C 339.122,156.29 342.622,159.123 348.5,159C 392.167,159.333 435.833,159.667 479.5,160C 493.818,163.494 504.484,171.661 511.5,184.5 Z M 251.5,16.5 C 265.969,16.647 277.136,22.647 285,34.5C 299.461,75.2159 313.128,116.216 326,157.5C 328.74,164.914 333.907,169.414 341.5,171C 385.167,171.333 428.833,171.667 472.5,172C 491.593,176.665 501.926,188.832 503.5,208.5C 502.68,219.64 498.013,228.807 489.5,236C 456.99,259.088 424.657,282.422 392.5,306C 388.964,309.201 385.797,312.701 383,316.5C 382.333,321.833 382.333,327.167 383,332.5C 396.776,374.16 409.943,415.994 422.5,458C 419.227,481.277 405.893,493.277 382.5,494C 377.617,492.928 372.95,491.261 368.5,489C 333.167,463.667 297.833,438.333 262.5,413C 257.167,412.333 251.833,412.333 246.5,413C 212.303,436.599 178.636,460.932 145.5,486C 127.171,498.382 110.338,496.548 95,480.5C 89.098,472.796 86.4314,464.13 87,454.5C 99.7983,413.772 112.798,373.105 126,332.5C 126.667,327.167 126.667,321.833 126,316.5C 123.203,312.701 120.036,309.201 116.5,306C 81.3768,281.354 46.8768,255.854 13,229.5C 2.79866,211.632 4.63199,195.132 18.5,180C 22.8878,177.139 27.5545,174.806 32.5,173C 77.4542,171.687 122.454,171.02 167.5,171C 175.093,169.414 180.26,164.914 183,157.5C 195.872,116.216 209.539,75.2159 224,34.5C 230.666,24.6651 239.833,18.6651 251.5,16.5 Z"/></g>
</svg>
