<?xml version="1.0" encoding="UTF-8"?>
<!DOCTYPE svg PUBLIC "-//W3C//DTD SVG 1.1//EN" "http://www.w3.org/Graphics/SVG/1.1/DTD/svg11.dtd">
<svg xmlns="http://www.w3.org/2000/svg" version="1.1" width="512px" height="512px" style="shape-rendering:geometricPrecision; text-rendering:geometricPrecision; image-rendering:optimizeQuality; fill-rule:evenodd; clip-rule:evenodd" xmlns:xlink="http://www.w3.org/1999/xlink">
<g><path style="opacity:0.97" fill="#000000" d="M 511.5,244.5 C 511.5,253.5 511.5,262.5 511.5,271.5C 500.263,352.907 456.763,409.573 381,441.5C 380.667,459.5 380.333,477.5 380,495.5C 378.073,500.428 374.573,503.594 369.5,505C 293.5,505.667 217.5,505.667 141.5,505C 136.427,503.594 132.927,500.428 131,495.5C 130.667,477.5 130.333,459.5 130,441.5C 54.2366,409.573 10.7366,352.907 -0.5,271.5C -0.5,262.5 -0.5,253.5 -0.5,244.5C 2.84965,237.481 8.51632,233.981 16.5,234C 9.86655,221.297 7.69988,207.797 10,193.5C 15.7328,168.6 30.8995,152.6 55.5,145.5C 61.953,122.047 76.953,107.38 100.5,101.5C 105.69,79.4748 118.69,63.9748 139.5,55C 142.774,53.7977 146.107,52.7977 149.5,52C 166.38,13.0607 195.38,-0.939253 236.5,10C 255.351,18.5192 268.351,32.5192 275.5,52C 290.586,55.3694 302.919,63.0361 312.5,75C 345.852,63.2039 378.185,65.8706 409.5,83C 446.205,103.566 472.371,133.4 488,172.5C 494.772,192.781 496.272,213.448 492.5,234.5C 501.315,233.404 507.648,236.738 511.5,244.5 Z M 207.5,36.5 C 230.785,36.6122 243.951,48.2789 247,71.5C 248.061,74.5616 249.894,77.0616 252.5,79C 259.777,80.7976 267.11,82.4642 274.5,84C 280.365,86.8599 285.365,90.8599 289.5,96C 253.557,135.336 239.223,181.503 246.5,234.5C 235.162,234.667 223.828,234.5 212.5,234C 226.252,203.683 220.585,177.683 195.5,156C 188.553,151.693 181.22,148.193 173.5,145.5C 167.562,123.728 153.895,109.228 132.5,102C 136.979,92.8536 143.979,86.5202 153.5,83C 159.986,82.2544 166.319,80.9211 172.5,79C 174.709,77.1266 176.542,74.96 178,72.5C 179.349,53.3357 189.182,41.3357 207.5,36.5 Z M 343.5,98.5 C 353.959,97.9231 364.125,99.2564 374,102.5C 373.792,115.502 373.125,128.502 372,141.5C 358.833,128.333 345.667,115.167 332.5,102C 336.232,100.658 339.899,99.4912 343.5,98.5 Z M 404.5,116.5 C 420.957,127.123 434.623,140.623 445.5,157C 430.904,158.912 416.237,159.912 401.5,160C 403.016,145.589 404.016,131.089 404.5,116.5 Z M 309.5,124.5 C 323.247,136.744 336.581,149.578 349.5,163C 337.646,164.578 325.646,165.745 313.5,166.5C 312.5,166.167 311.5,165.833 310.5,165.5C 305.838,151.906 305.505,138.24 309.5,124.5 Z M 109.5,130.5 C 123.956,129.131 134.122,134.797 140,147.5C 130.599,150.78 122.433,155.947 115.5,163C 114.833,163.667 114.167,163.667 113.5,163C 106.125,155.984 97.7915,150.484 88.5,146.5C 93.2732,138.038 100.273,132.705 109.5,130.5 Z M 279.5,174.5 C 287.43,196.527 299.097,216.36 314.5,234C 302.505,234.5 290.505,234.667 278.5,234.5C 273.501,214.454 273.834,194.454 279.5,174.5 Z M 64.5,175.5 C 81.0358,174.683 92.2025,182.016 98,197.5C 100.86,216.625 93.0264,228.791 74.5,234C 57.9444,235.302 46.7778,228.135 41,212.5C 38.2602,193.29 46.0935,180.957 64.5,175.5 Z M 154.5,175.5 C 171.036,174.683 182.202,182.016 188,197.5C 190.86,216.625 183.026,228.791 164.5,234C 147.944,235.302 136.778,228.135 131,212.5C 128.26,193.29 136.094,180.957 154.5,175.5 Z M 458.5,187.5 C 461.232,191.186 462.732,195.519 463,200.5C 463.667,207.833 463.667,215.167 463,222.5C 462.624,225.01 461.79,227.343 460.5,229.5C 447.347,216.847 434.347,204.014 421.5,191C 433.976,189.787 446.309,188.621 458.5,187.5 Z M 364.5,193.5 C 365.833,193.5 367.167,193.5 368.5,193.5C 367.792,207.164 367.125,220.831 366.5,234.5C 364.473,234.662 362.473,234.495 360.5,234C 346.751,223.585 335.084,211.252 325.5,197C 338.649,195.805 351.649,194.638 364.5,193.5 Z M 398.5,212.5 C 405.965,219.464 413.298,226.631 420.5,234C 412.841,234.5 405.174,234.666 397.5,234.5C 397.723,227.16 398.056,219.827 398.5,212.5 Z M 30.5,265.5 C 180.5,265.5 330.5,265.5 480.5,265.5C 472.629,332.508 438.296,380.342 377.5,409C 373.167,410.667 368.833,412.333 364.5,414C 291.833,414.667 219.167,414.667 146.5,414C 91.6815,393.848 55.1815,356.015 37,300.5C 33.7543,289.025 31.5877,277.358 30.5,265.5 Z M 160.5,445.5 C 223.833,445.5 287.167,445.5 350.5,445.5C 350.5,455.167 350.5,464.833 350.5,474.5C 287.167,474.5 223.833,474.5 160.5,474.5C 160.5,464.833 160.5,455.167 160.5,445.5 Z"/></g>
</svg>
