<?xml version="1.0" encoding="UTF-8"?>
<!DOCTYPE svg PUBLIC "-//W3C//DTD SVG 1.1//EN" "http://www.w3.org/Graphics/SVG/1.1/DTD/svg11.dtd">
<svg xmlns="http://www.w3.org/2000/svg" version="1.1" width="512px" height="512px" style="shape-rendering:geometricPrecision; text-rendering:geometricPrecision; image-rendering:optimizeQuality; fill-rule:evenodd; clip-rule:evenodd" xmlns:xlink="http://www.w3.org/1999/xlink">
<g><path style="opacity:0.98" fill="#ff8c2e" d="M 233.5,-0.5 C 240.833,-0.5 248.167,-0.5 255.5,-0.5C 255.5,9.83333 255.5,20.1667 255.5,30.5C 168.916,33.5187 103.416,71.852 59,145.5C 24.3838,211.418 21.3838,278.751 50,347.5C 86.4766,422.276 145.977,466.109 228.5,479C 237.472,480.04 246.472,480.54 255.5,480.5C 255.5,490.833 255.5,501.167 255.5,511.5C 248.167,511.5 240.833,511.5 233.5,511.5C 135.22,499.033 64.3865,448.366 21,359.5C 9.44633,333.197 2.27966,305.864 -0.5,277.5C -0.5,262.833 -0.5,248.167 -0.5,233.5C 11.967,135.22 62.6336,64.3865 151.5,21C 177.803,9.44633 205.136,2.27966 233.5,-0.5 Z"/></g>
<g><path style="opacity:1" fill="#e26b1b" d="M 255.5,-0.5 C 262.833,-0.5 270.167,-0.5 277.5,-0.5C 375.78,11.967 446.613,62.6336 490,151.5C 501.554,177.803 508.72,205.136 511.5,233.5C 511.5,248.167 511.5,262.833 511.5,277.5C 499.033,375.78 448.366,446.613 359.5,490C 333.197,501.554 305.864,508.72 277.5,511.5C 270.167,511.5 262.833,511.5 255.5,511.5C 255.5,501.167 255.5,490.833 255.5,480.5C 336.373,478.156 399.54,443.823 445,377.5C 485.622,310.553 491.622,240.553 463,167.5C 428.77,93.6116 371.603,48.7783 291.5,33C 279.573,31.1003 267.573,30.267 255.5,30.5C 255.5,20.1667 255.5,9.83333 255.5,-0.5 Z"/></g>
<g><path style="opacity:1" fill="#fdc377" d="M 255.5,30.5 C 267.573,30.267 279.573,31.1003 291.5,33C 371.603,48.7783 428.77,93.6116 463,167.5C 491.622,240.553 485.622,310.553 445,377.5C 399.54,443.823 336.373,478.156 255.5,480.5C 255.5,470.5 255.5,460.5 255.5,450.5C 276.403,450.536 294.736,443.869 310.5,430.5C 293.167,387.5 275.833,344.5 258.5,301.5C 257.675,300.614 256.675,300.281 255.5,300.5C 255.5,270.5 255.5,240.5 255.5,210.5C 257.411,210.426 258.578,209.426 259,207.5C 277.069,165.126 295.236,122.792 313.5,80.5C 296.998,65.9241 277.665,58.5908 255.5,58.5C 255.5,49.1667 255.5,39.8333 255.5,30.5 Z"/></g>
<g><path style="opacity:1" fill="#fedaaa" d="M 255.5,30.5 C 255.5,39.8333 255.5,49.1667 255.5,58.5C 234.61,58.4604 216.276,65.1271 200.5,78.5C 217.943,121.054 235.11,163.72 252,206.5C 252.498,208.544 253.665,209.878 255.5,210.5C 255.5,240.5 255.5,270.5 255.5,300.5C 253.089,300.137 251.589,301.137 251,303.5C 233.296,345.073 215.462,386.573 197.5,428C 213.966,442.659 233.299,450.159 255.5,450.5C 255.5,460.5 255.5,470.5 255.5,480.5C 246.472,480.54 237.472,480.04 228.5,479C 145.977,466.109 86.4766,422.276 50,347.5C 21.3838,278.751 24.3838,211.418 59,145.5C 103.416,71.852 168.916,33.5187 255.5,30.5 Z"/></g>
<g><path style="opacity:1" fill="#fea832" d="M 255.5,58.5 C 255.5,109.167 255.5,159.833 255.5,210.5C 253.665,209.878 252.498,208.544 252,206.5C 235.11,163.72 217.943,121.054 200.5,78.5C 216.276,65.1271 234.61,58.4604 255.5,58.5 Z"/></g>
<g><path style="opacity:1" fill="#fe9923" d="M 255.5,58.5 C 277.665,58.5908 296.998,65.9241 313.5,80.5C 295.236,122.792 277.069,165.126 259,207.5C 258.578,209.426 257.411,210.426 255.5,210.5C 255.5,159.833 255.5,109.167 255.5,58.5 Z"/></g>
<g><path style="opacity:1" fill="#fea832" d="M 166.5,90.5 C 169.119,90.2317 171.619,90.565 174,91.5C 191.305,134.61 208.472,177.777 225.5,221C 225.046,222.622 224.046,223.788 222.5,224.5C 180.833,206.667 139.167,188.833 97.5,171C 94.8848,170.205 92.8848,168.705 91.5,166.5C 99.8176,124.517 124.818,99.1834 166.5,90.5 Z"/></g>
<g><path style="opacity:1" fill="#fe9923" d="M 341.5,90.5 C 384.923,97.9223 410.923,123.256 419.5,166.5C 418.115,168.705 416.115,170.205 413.5,171C 371.833,188.833 330.167,206.667 288.5,224.5C 285.017,222.854 284.517,220.521 287,217.5C 305.182,175.141 323.348,132.807 341.5,90.5 Z"/></g>
<g><path style="opacity:1" fill="#fea832" d="M 80.5,196.5 C 123.183,214.563 165.85,232.73 208.5,251C 210.363,252.418 210.863,254.251 210,256.5C 166.333,274.167 122.667,291.833 79,309.5C 56.0965,278.208 53.4299,245.208 71,210.5C 74.4135,205.934 77.5802,201.268 80.5,196.5 Z"/></g>
<g><path style="opacity:1" fill="#fe9923" d="M 428.5,196.5 C 439.239,207.292 446.405,220.292 450,235.5C 455.468,264.574 448.635,290.241 429.5,312.5C 386.833,294.167 344.167,275.833 301.5,257.5C 299.864,253.902 300.864,251.402 304.5,250C 346.039,232.391 387.373,214.557 428.5,196.5 Z"/></g>
<g><path style="opacity:1" fill="#fea832" d="M 220.5,284.5 C 224.674,286.526 225.507,289.526 223,293.5C 205.333,334.5 187.667,375.5 170,416.5C 156.084,416.755 143.251,412.921 131.5,405C 107.357,388.553 94.1901,365.719 92,336.5C 134.964,319.261 177.797,301.927 220.5,284.5 Z"/></g>
<g><path style="opacity:1" fill="#fe9923" d="M 288.5,285.5 C 332.032,303.263 375.365,321.597 418.5,340.5C 413.16,381.026 390.494,406.526 350.5,417C 346.136,418.082 341.803,418.249 337.5,417.5C 320.107,374.987 303.107,332.32 286.5,289.5C 286.752,287.927 287.418,286.594 288.5,285.5 Z"/></g>
<g><path style="opacity:1" fill="#fea832" d="M 255.5,300.5 C 255.5,350.5 255.5,400.5 255.5,450.5C 233.299,450.159 213.966,442.659 197.5,428C 215.462,386.573 233.296,345.073 251,303.5C 251.589,301.137 253.089,300.137 255.5,300.5 Z"/></g>
<g><path style="opacity:1" fill="#fe9923" d="M 255.5,300.5 C 256.675,300.281 257.675,300.614 258.5,301.5C 275.833,344.5 293.167,387.5 310.5,430.5C 294.736,443.869 276.403,450.536 255.5,450.5C 255.5,400.5 255.5,350.5 255.5,300.5 Z"/></g>
</svg>
