<?xml version="1.0" encoding="UTF-8"?>
<!DOCTYPE svg PUBLIC "-//W3C//DTD SVG 1.1//EN" "http://www.w3.org/Graphics/SVG/1.1/DTD/svg11.dtd">
<svg xmlns="http://www.w3.org/2000/svg" version="1.1" width="512px" height="511px" style="shape-rendering:geometricPrecision; text-rendering:geometricPrecision; image-rendering:optimizeQuality; fill-rule:evenodd; clip-rule:evenodd" xmlns:xlink="http://www.w3.org/1999/xlink">
<g><path style="opacity:0.993" fill="#000000" d="M -0.5,221.5 C -0.5,212.5 -0.5,203.5 -0.5,194.5C 5.25716,178.915 16.2572,169.081 32.5,165C 76.1667,164.667 119.833,164.333 163.5,164C 170.068,163.437 174.235,159.937 176,153.5C 188.872,112.216 202.539,71.2159 217,30.5C 227.536,14.6422 242.369,7.80889 261.5,10C 274.817,12.2355 284.984,19.0689 292,30.5C 306.461,71.2159 320.128,112.216 333,153.5C 334.765,159.937 338.932,163.437 345.5,164C 390.546,164.02 435.546,164.687 480.5,166C 503.615,175.381 513.448,192.548 510,217.5C 507.407,227.847 501.907,236.347 493.5,243C 462.5,265.333 431.5,287.667 400.5,310C 396.333,312.833 392.833,316.333 390,320.5C 389.333,323.167 389.333,325.833 390,328.5C 402.132,366.562 414.465,404.562 427,442.5C 433.838,467.314 426.004,485.814 403.5,498C 387.958,503.876 373.292,502.209 359.5,493C 327.167,469.333 294.833,445.667 262.5,422C 257.167,418.667 251.833,418.667 246.5,422C 211.724,448.109 176.391,473.442 140.5,498C 113.987,506.389 94.4869,498.222 82,473.5C 79.6988,465.986 79.0322,458.319 80,450.5C 92.7983,409.772 105.798,369.105 119,328.5C 119.667,325.833 119.667,323.167 119,320.5C 116.167,316.333 112.667,312.833 108.5,310C 77.5,287.667 46.5,265.333 15.5,243C 12.3333,239.833 9.16667,236.667 6,233.5C 3.53607,229.566 1.36941,225.566 -0.5,221.5 Z"/></g>
</svg>
