<?xml version="1.0" encoding="UTF-8"?>
<!DOCTYPE svg PUBLIC "-//W3C//DTD SVG 1.1//EN" "http://www.w3.org/Graphics/SVG/1.1/DTD/svg11.dtd">
<svg xmlns="http://www.w3.org/2000/svg" version="1.1" width="512px" height="512px" style="shape-rendering:geometricPrecision; text-rendering:geometricPrecision; image-rendering:optimizeQuality; fill-rule:evenodd; clip-rule:evenodd" xmlns:xlink="http://www.w3.org/1999/xlink">
<g><path style="opacity:1" fill="#26945c" d="M 43.5,385.5 C 120.873,458.67 210.206,478.17 311.5,444C 369.93,419.571 412.764,378.737 440,321.5C 479.844,217.225 461.678,124.558 385.5,43.5C 389.142,37.6862 393.809,33.1862 399.5,30C 471.978,106.401 495.145,195.901 469,298.5C 446.001,372.169 399.501,425.336 329.5,458C 233.071,495.459 142.738,484.459 58.5,425C 48.702,416.871 39.202,408.371 30,399.5C 33.1862,393.809 37.6862,389.142 43.5,385.5 Z"/></g>
<g><path style="opacity:1" fill="#1d985b" d="M 385.5,43.5 C 461.678,124.558 479.844,217.225 440,321.5C 412.764,378.737 369.93,419.571 311.5,444C 210.206,478.17 120.873,458.67 43.5,385.5C 43.5,384.833 43.8333,384.5 44.5,384.5C 66.8545,405.673 91.8545,423.173 119.5,437C 182.355,464.751 246.021,466.751 310.5,443C 368.93,418.571 411.764,377.737 439,320.5C 478.578,216.894 460.412,124.894 384.5,44.5C 384.5,43.8333 384.833,43.5 385.5,43.5 Z"/></g>
<g><path style="opacity:1" fill="#00af46" d="M 384.5,44.5 C 460.412,124.894 478.578,216.894 439,320.5C 411.764,377.737 368.93,418.571 310.5,443C 246.021,466.751 182.355,464.751 119.5,437C 91.8545,423.173 66.8545,405.673 44.5,384.5C 152.604,274.895 261.271,165.729 370.5,57C 375.335,52.9965 380.002,48.8298 384.5,44.5 Z"/></g>
<g><path style="opacity:1" fill="#46c657" d="M 386.5,67.5 C 425.907,108.662 446.24,157.996 447.5,215.5C 378.166,215.667 308.833,215.5 239.5,215C 288.701,165.965 337.701,116.799 386.5,67.5 Z"/></g>
<g><path style="opacity:1" fill="#cceb71" d="M 386.5,69.5 C 424.784,109.96 444.784,158.293 446.5,214.5C 378.499,214.667 310.499,214.5 242.5,214C 290.701,165.965 338.701,117.799 386.5,69.5 Z"/></g>
<g><path style="opacity:1" fill="#46c657" d="M 342.5,233.5 C 377.646,233.007 412.646,233.507 447.5,235C 443.169,290.481 421.669,337.981 383,377.5C 334.861,330.361 287.028,282.861 239.5,235C 274.002,234.832 308.336,234.332 342.5,233.5 Z"/></g>
<g><path style="opacity:1" fill="#cceb71" d="M 343.5,234.5 C 377.5,234.5 411.5,234.5 445.5,234.5C 442.037,289.407 421.204,336.407 383,375.5C 335.861,329.361 289.028,282.861 242.5,236C 276.336,235.832 310.002,235.332 343.5,234.5 Z"/></g>
<g><path style="opacity:1" fill="#46c657" d="M 205.5,246.5 C 206.328,252.319 206.828,258.319 207,264.5C 207.5,325.499 207.667,386.499 207.5,447.5C 152.781,444.46 105.447,424.46 65.5,387.5C 112.188,340.479 158.854,293.479 205.5,246.5 Z"/></g>
<g><path style="opacity:1" fill="#46c657" d="M 225.5,248.5 C 273.479,295.812 321.146,343.479 368.5,391.5C 327.854,427.395 280.187,446.062 225.5,447.5C 225.5,381.167 225.5,314.833 225.5,248.5 Z"/></g>
<g><path style="opacity:1" fill="#cceb71" d="M 204.5,249.5 C 205.327,254.651 205.827,259.984 206,265.5C 206.5,325.832 206.667,386.166 206.5,446.5C 152.932,443.036 106.599,423.203 67.5,387C 113.368,341.299 159.035,295.465 204.5,249.5 Z"/></g>
<g><path style="opacity:1" fill="#cceb71" d="M 226.5,251.5 C 273.479,297.812 320.146,344.479 366.5,391.5C 326.56,426.271 279.893,444.604 226.5,446.5C 226.5,381.5 226.5,316.5 226.5,251.5 Z"/></g>
</svg>
