<?xml version="1.0" encoding="UTF-8"?>
<!DOCTYPE svg PUBLIC "-//W3C//DTD SVG 1.1//EN" "http://www.w3.org/Graphics/SVG/1.1/DTD/svg11.dtd">
<svg xmlns="http://www.w3.org/2000/svg" version="1.1" width="512px" height="512px" style="shape-rendering:geometricPrecision; text-rendering:geometricPrecision; image-rendering:optimizeQuality; fill-rule:evenodd; clip-rule:evenodd" xmlns:xlink="http://www.w3.org/1999/xlink">
<g><path style="opacity:1" fill="#000000" d="M 338.5,-0.5 C 342.5,-0.5 346.5,-0.5 350.5,-0.5C 360.961,6.64129 362.628,15.4746 355.5,26C 312.681,53.9453 286.015,92.7787 275.5,142.5C 337.795,104.127 391.295,113.794 436,171.5C 451.982,195.441 461.649,221.774 465,250.5C 471.265,322.358 454.598,388.358 415,448.5C 402.856,465.31 388.689,480.143 372.5,493C 359.758,502.209 345.758,508.375 330.5,511.5C 321.833,511.5 313.167,511.5 304.5,511.5C 291.419,508.409 279.086,503.242 267.5,496C 259.5,491.333 251.5,491.333 243.5,496C 231.914,503.242 219.581,508.409 206.5,511.5C 197.833,511.5 189.167,511.5 180.5,511.5C 156.167,505.686 135.334,493.686 118,475.5C 75.445,426.567 51.1117,369.567 45,304.5C 41.6422,268.711 46.3089,234.045 59,200.5C 76.9906,157.845 108.491,131.012 153.5,120C 129.216,92.485 118.049,60.3184 120,23.5C 124.2,15.4051 130.867,12.4051 140,14.5C 194.639,18.1636 233.972,44.4969 258,93.5C 276.093,54.5815 302.926,23.2482 338.5,-0.5 Z M 151.5,46.5 C 198.5,56.8333 227.167,85.5 237.5,132.5C 190.504,122.171 161.837,93.5039 151.5,46.5 Z M 164.5,149.5 C 172.283,150.156 179.95,151.656 187.5,154C 203.266,161.55 219.266,168.55 235.5,175C 253.592,179.3 271.258,177.967 288.5,171C 302.025,163.57 316.025,157.237 330.5,152C 344.14,148.701 357.474,150.035 370.5,156C 400.707,171.884 420.207,196.384 429,229.5C 444.406,309.207 427.406,381.207 378,445.5C 369.015,455.827 358.849,464.66 347.5,472C 331.925,481.217 315.592,482.883 298.5,477C 290.5,473 282.5,469 274.5,465C 261.833,460.333 249.167,460.333 236.5,465C 225.657,471.088 214.324,476.088 202.5,480C 188.553,481.93 175.553,479.263 163.5,472C 140.455,456.385 122.621,436.219 110,411.5C 80.2327,358.334 69.8993,301.667 79,241.5C 85.7173,204.833 104.884,176.999 136.5,158C 145.564,153.808 154.898,150.975 164.5,149.5 Z"/></g>
</svg>
